<svg width="24" height="24" viewBox="0 0 24 24" fill="none" xmlns="http://www.w3.org/2000/svg">
<path d="M19.3359 17.5705C19.5546 17.7924 19.6761 18.0843 19.664 18.388C19.664 18.6916 19.5425 18.9719 19.3116 19.1938C19.0929 19.404 18.7891 19.5325 18.4732 19.5325C18.1572 19.5325 17.8534 19.4274 17.6226 19.2172L10.745 12.6071C10.6356 12.502 10.5505 12.3735 10.4898 12.2334C10.429 12.0932 10.3926 11.9414 10.3926 11.7896C10.3926 11.6378 10.429 11.486 10.4898 11.3341C10.5505 11.194 10.6356 11.0655 10.745 10.9604L17.6226 4.35036C17.7319 4.24525 17.8656 4.15182 18.0114 4.09343C18.1694 4.03504 18.3273 4 18.4853 4C18.6433 4 18.8134 4.02336 18.9592 4.08175C19.105 4.14014 19.2387 4.23357 19.3602 4.33868C19.4696 4.44378 19.5546 4.58393 19.6154 4.72407C19.6883 4.86421 19.7126 5.01603 19.7126 5.17953C19.7126 5.33135 19.6761 5.48318 19.6154 5.62332C19.5546 5.76346 19.4574 5.89193 19.3359 6.00871L13.321 11.7896L14.4632 12.8757L19.3359 17.5705Z" fill="white"/>
<path d="M4.37676 5.96199C4.15804 5.7401 4.03652 5.44814 4.04867 5.1445C4.04867 4.84085 4.17019 4.56057 4.40106 4.33868C4.61978 4.12846 4.92356 4 5.2395 4C5.55543 4 5.85921 4.10511 6.09008 4.31532L12.9677 10.9254C13.077 11.0305 13.1621 11.1589 13.2229 11.2991C13.2836 11.4392 13.3201 11.5911 13.3201 11.7429C13.3201 11.8947 13.2836 12.0465 13.2229 12.1983C13.1621 12.3385 13.077 12.4669 12.9677 12.5721L6.09008 19.1821C5.98072 19.2872 5.84706 19.3806 5.70124 19.439C5.54328 19.4974 5.38531 19.5325 5.22734 19.5325C5.06938 19.5325 4.89926 19.5091 4.75345 19.4507C4.60763 19.3923 4.47397 19.2989 4.35245 19.1938C4.24309 19.0887 4.15803 18.9485 4.09728 18.8084C4.02437 18.6683 4.00007 18.5164 4.00007 18.3529C4.00007 18.2011 4.03652 18.0493 4.09728 17.9092C4.15803 17.769 4.25524 17.6405 4.37676 17.5238L10.3916 11.7429L9.2494 10.6568L4.37676 5.96199Z" fill="white"/>
</svg>
