<svg width="24" height="24" viewBox="0 0 24 24" fill="none" xmlns="http://www.w3.org/2000/svg">
<path d="M14.7973 9.05376L7.47991 16.3711L7.00143 18.0034L8.60043 17.5411L15.9421 10.1994L14.7973 9.05376ZM16.0457 7.80532L17.1906 8.95013L18.2576 7.88305C18.3335 7.80713 18.3762 7.70418 18.3762 7.59684C18.3762 7.4895 18.3335 7.38655 18.2576 7.31064L17.6844 6.73824C17.6085 6.66235 17.5056 6.61971 17.3982 6.61971C17.2909 6.61971 17.1879 6.66235 17.112 6.73824L16.0466 7.80532H16.0457ZM18.83 5.59343L19.4024 6.16583C19.7819 6.5454 19.9951 7.06013 19.9951 7.59684C19.9951 8.13355 19.7819 8.64829 19.4024 9.02785L9.45054 18.9806L6.03392 19.9683C5.89466 20.0085 5.74717 20.0105 5.60685 19.9742C5.46653 19.9379 5.33853 19.8646 5.23621 19.7619C5.13389 19.6593 5.061 19.5311 5.02515 19.3906C4.98931 19.2502 4.99182 19.1027 5.03242 18.9636L6.04283 15.5186L15.9688 5.59262C16.3484 5.21316 16.8631 5 17.3998 5C17.9365 5 18.4513 5.21316 18.8308 5.59262L18.83 5.59343Z" fill="white"/>
</svg>
