<svg width="24" height="24" viewBox="0 0 24 24" fill="none" xmlns="http://www.w3.org/2000/svg">
<path d="M12 2C10.0222 2 8.08879 2.58649 6.4443 3.6853C4.79981 4.78412 3.51809 6.3459 2.76121 8.17317C2.00433 10.0004 1.8063 12.0111 2.19215 13.9509C2.578 15.8907 3.53041 17.6725 4.92894 19.0711C6.32746 20.4696 8.10929 21.422 10.0491 21.8079C11.9889 22.1937 13.9996 21.9957 15.8268 21.2388C17.6541 20.4819 19.2159 19.2002 20.3147 17.5557C21.4135 15.9112 22 13.9778 22 12C22 10.6868 21.7413 9.38642 21.2388 8.17317C20.7363 6.95991 19.9997 5.85752 19.0711 4.92893C18.1425 4.00035 17.0401 3.26375 15.8268 2.7612C14.6136 2.25866 13.3132 2 12 2V2ZM12 20C10.4178 20 8.87104 19.5308 7.55544 18.6518C6.23985 17.7727 5.21447 16.5233 4.60897 15.0615C4.00347 13.5997 3.84504 11.9911 4.15372 10.4393C4.4624 8.88743 5.22433 7.46197 6.34315 6.34315C7.46197 5.22433 8.88743 4.4624 10.4393 4.15372C11.9911 3.84504 13.5997 4.00346 15.0615 4.60896C16.5233 5.21447 17.7727 6.23984 18.6518 7.55544C19.5308 8.87103 20 10.4177 20 12C20 14.1217 19.1572 16.1566 17.6569 17.6569C16.1566 19.1571 14.1217 20 12 20V20Z" fill="white"/>
<path d="M12.2175 6.00007C11.2893 6.00007 10.399 6.36882 9.74266 7.02519C9.08628 7.68157 8.71753 8.57181 8.71753 9.50007C8.71753 9.76528 8.82289 10.0196 9.01042 10.2072C9.19796 10.3947 9.45231 10.5001 9.71753 10.5001C9.98275 10.5001 10.2371 10.3947 10.4246 10.2072C10.6122 10.0196 10.7175 9.76528 10.7175 9.50007C10.7175 9.2034 10.8055 8.91339 10.9703 8.66671C11.1351 8.42004 11.3694 8.22778 11.6435 8.11425C11.9176 8.00072 12.2192 7.97101 12.5102 8.02889C12.8011 8.08677 13.0684 8.22963 13.2782 8.43941C13.488 8.64919 13.6308 8.91646 13.6887 9.20743C13.7466 9.4984 13.7169 9.8 13.6033 10.0741C13.4898 10.3482 13.2976 10.5824 13.0509 10.7473C12.8042 10.9121 12.5142 11.0001 12.2175 11.0001C11.9523 11.0001 11.698 11.1054 11.5104 11.293C11.3229 11.4805 11.2175 11.7349 11.2175 12.0001V14.0001C11.2175 14.2653 11.3229 14.5196 11.5104 14.7072C11.698 14.8947 11.9523 15.0001 12.2175 15.0001C12.4827 15.0001 12.7371 14.8947 12.9246 14.7072C13.1122 14.5196 13.2175 14.2653 13.2175 14.0001V12.8401C14.0256 12.6041 14.7212 12.0839 15.176 11.3755C15.6308 10.6671 15.8143 9.81813 15.6925 8.98513C15.5707 8.15213 15.1519 7.39122 14.5133 6.84266C13.8747 6.29409 13.0594 5.99484 12.2175 6.00007V6.00007Z" fill="white"/>
<path d="M12.2175 18C12.7698 18 13.2175 17.5523 13.2175 17C13.2175 16.4477 12.7698 16 12.2175 16C11.6652 16 11.2175 16.4477 11.2175 17C11.2175 17.5523 11.6652 18 12.2175 18Z" fill="#181725"/>
</svg>
