<svg width="24" height="24" viewBox="0 0 24 24" fill="none" xmlns="http://www.w3.org/2000/svg">
<path d="M20.5097 15.2069L18.7098 13.397V8.93728C18.7338 7.2812 18.1577 5.67239 17.0881 4.40789C16.0184 3.14339 14.5273 2.30861 12.8902 2.05769C11.9401 1.93257 10.9742 2.01151 10.057 2.28926C9.13977 2.567 8.29235 3.03716 7.57124 3.66836C6.85014 4.29956 6.27194 5.07729 5.87523 5.94965C5.47852 6.82202 5.27241 7.76896 5.27066 8.72729V13.397L3.47077 15.2069C3.24469 15.4368 3.09137 15.7281 3.02999 16.0446C2.96861 16.3612 3.00189 16.6887 3.12567 16.9864C3.24944 17.2841 3.45822 17.5387 3.7259 17.7184C3.99359 17.8981 4.3083 17.9949 4.6307 17.9967H7.99049V18.3367C8.0372 19.3519 8.48442 20.3071 9.23414 20.9931C9.98387 21.6791 10.975 22.0399 11.9903 21.9965C13.0055 22.0399 13.9966 21.6791 14.7464 20.9931C15.4961 20.3071 15.9433 19.3519 15.99 18.3367V17.9967H19.3498C19.6722 17.9949 19.9869 17.8981 20.2546 17.7184C20.5223 17.5387 20.7311 17.2841 20.8548 16.9864C20.9786 16.6887 21.0119 16.3612 20.9505 16.0446C20.8891 15.7281 20.7358 15.4368 20.5097 15.2069V15.2069ZM13.9901 18.3367C13.9347 18.8177 13.6958 19.2587 13.3232 19.5679C12.9507 19.8771 12.4732 20.0307 11.9903 19.9966C11.5073 20.0307 11.0298 19.8771 10.6573 19.5679C10.2847 19.2587 10.0458 18.8177 9.99037 18.3367V17.9967H13.9901V18.3367ZM5.50064 15.9969L6.68057 14.8169C6.86773 14.6309 7.01622 14.4096 7.11747 14.1659C7.21872 13.9222 7.27075 13.6609 7.27054 13.397V8.72729C7.27108 8.05273 7.41591 7.3861 7.69531 6.77212C7.9747 6.15814 8.38219 5.61103 8.89044 5.16751C9.39183 4.71322 9.98595 4.3733 10.6317 4.1713C11.2774 3.96929 11.9593 3.91002 12.6302 3.99758C13.7866 4.18534 14.8363 4.78454 15.5859 5.68485C16.3356 6.58517 16.7348 7.72599 16.71 8.89728V13.397C16.7084 13.6602 16.7589 13.9211 16.8584 14.1648C16.9579 14.4084 17.1046 14.6301 17.2899 14.8169L18.4799 15.9969H5.50064Z" fill="white"/>
</svg>
