<svg width="24" height="24" viewBox="0 0 24 24" fill="none" xmlns="http://www.w3.org/2000/svg">
<path fill-rule="evenodd" clip-rule="evenodd" d="M4 10.4484C4.01577 5.76661 7.7917 1.98414 12.4338 2.00005C17.0758 2.01596 20.8262 5.82421 20.8104 10.506V10.602C20.7533 13.6454 19.0684 16.4583 17.0028 18.6568C15.8215 19.894 14.5023 20.9893 13.0715 21.9209C12.6889 22.2547 12.1215 22.2547 11.7389 21.9209C9.60591 20.5207 7.73387 18.7529 6.20839 16.6983C4.84876 14.9067 4.07681 12.7321 4 10.4772L4 10.4484Z" stroke="white" stroke-width="2" stroke-linecap="round" stroke-linejoin="round"/>
<path fill-rule="evenodd" clip-rule="evenodd" d="M12.4052 12.973C13.6984 12.973 14.7467 11.9157 14.7467 10.6114C14.7467 9.30718 13.6984 8.24988 12.4052 8.24988C11.112 8.24988 10.0637 9.30718 10.0637 10.6114C10.0637 11.9157 11.112 12.973 12.4052 12.973Z" stroke="white" stroke-width="2" stroke-linecap="round" stroke-linejoin="round"/>
</svg>
