<svg width="24" height="24" viewBox="0 0 24 24" fill="none" xmlns="http://www.w3.org/2000/svg">
<path d="M17.834 4.36917C18.119 4.09536 18.119 3.65144 17.834 3.37767L15.6583 1.28782C15.3732 1.01401 14.911 1.01405 14.626 1.28782L1.29976 14.0882C1.01474 14.3619 1.0147 14.8059 1.29976 15.0797L3.47547 17.1695C3.76053 17.4433 4.22268 17.4433 4.50771 17.1695C5.12278 16.5787 6.12394 16.5787 6.73904 17.1695C7.35414 17.7603 7.35414 18.722 6.73904 19.3128C6.45402 19.5866 6.45398 20.0305 6.73904 20.3043L8.91475 22.3941C9.19981 22.668 9.66196 22.6679 9.94699 22.3941L23.2732 9.59379C23.5583 9.31998 23.5583 8.87607 23.2732 8.60229L21.0975 6.51245C20.8125 6.23864 20.3503 6.23867 20.0653 6.51245C19.4502 7.10325 18.4491 7.10327 17.834 6.51245C17.2189 5.92162 17.2189 4.95999 17.834 4.36917ZM16.8017 7.50398C17.8084 8.47096 19.3512 8.61582 20.5187 7.93947L21.7249 9.09804L13.3744 17.119L12.2587 16.0474C11.9736 15.7736 11.5115 15.7736 11.2265 16.0474C10.9414 16.3212 10.9414 16.7651 11.2265 17.0389L12.3421 18.1105L9.43087 20.9069L8.2247 19.7483C8.92881 18.6268 8.778 17.145 7.77128 16.178C6.76456 15.211 5.22183 15.0661 4.05429 15.7425L2.84812 14.5839L5.75935 11.7876L6.87502 12.8592C7.16008 13.133 7.62224 13.133 7.90726 12.8592C8.19228 12.5854 8.19228 12.1415 7.90726 11.8677L6.79159 10.7961L15.1421 2.7751L16.3483 3.93367C15.6442 5.05516 15.795 6.53698 16.8017 7.50398Z" fill="white" stroke="white" stroke-width="0.3"/>
<path d="M8.50667 13.4352C8.22168 13.709 8.22172 14.1528 8.50667 14.4265L9.59421 15.4711C9.8792 15.7448 10.3413 15.7448 10.6262 15.4711C10.9112 15.1974 10.9112 14.7535 10.6262 14.4798L9.53868 13.4352C9.53867 13.4352 9.53867 13.4352 9.53867 13.4352C9.25372 13.1615 8.79164 13.1615 8.50667 13.4352Z" fill="white" stroke="white" stroke-width="0.3"/>
</svg>
