<svg width="24" height="24" viewBox="0 0 24 24" fill="none" xmlns="http://www.w3.org/2000/svg">
<path d="M20 8.84215V6.92107H4V8.84215H20ZM20 10.7632H4V16.5264H20V10.7632ZM4 5H20C20.5304 5 21.0391 5.2024 21.4142 5.56267C21.7893 5.92294 22 6.41157 22 6.92107V16.5264C22 17.0359 21.7893 17.5246 21.4142 17.8848C21.0391 18.2451 20.5304 18.4475 20 18.4475H4C3.46957 18.4475 2.96086 18.2451 2.58579 17.8848C2.21071 17.5246 2 17.0359 2 16.5264V6.92107C2 6.41157 2.21071 5.92294 2.58579 5.56267C2.96086 5.2024 3.46957 5 4 5ZM6 12.6843H7C7.26522 12.6843 7.51957 12.7855 7.70711 12.9656C7.89464 13.1458 8 13.3901 8 13.6448C8 13.8996 7.89464 14.1439 7.70711 14.324C7.51957 14.5042 7.26522 14.6054 7 14.6054H6C5.73478 14.6054 5.48043 14.5042 5.29289 14.324C5.10536 14.1439 5 13.8996 5 13.6448C5 13.3901 5.10536 13.1458 5.29289 12.9656C5.48043 12.7855 5.73478 12.6843 6 12.6843ZM11 12.6843H16C16.2652 12.6843 16.5196 12.7855 16.7071 12.9656C16.8946 13.1458 17 13.3901 17 13.6448C17 13.8996 16.8946 14.1439 16.7071 14.324C16.5196 14.5042 16.2652 14.6054 16 14.6054H11C10.7348 14.6054 10.4804 14.5042 10.2929 14.324C10.1054 14.1439 10 13.8996 10 13.6448C10 13.3901 10.1054 13.1458 10.2929 12.9656C10.4804 12.7855 10.7348 12.6843 11 12.6843Z" fill="white"/>
</svg>
